Coordinates
version=1
nRows=49
nColumns=12
inDegrees=yes

Units are S.I. units (second, meters, Newtons, ...)
Angles are in degrees

endheader
time	SC_y	SC_z	SC_x	AC_y	AC_z	AC_x	GH_y	GH_z	GH_yy	EL_x	PS_y
       0.0              -12.98           27.8           19.5           48.2         -1.493          6.494         -148.2         -14.46         -159.0          15.24          158.2
   0.01441              -12.98          27.79           19.5           48.2         -1.495          6.493         -148.1         -14.45         -159.0          15.25          158.2
   0.02882              -12.98          27.79          19.51          48.21         -1.496          6.493         -148.1         -14.44         -158.9          15.25          158.2
   0.04323              -12.98          27.79          19.51          48.21         -1.498          6.492         -148.0         -14.43         -158.9          15.25          158.2
   0.05764              -12.99          27.78          19.51          48.21         -1.499          6.491         -148.0         -14.42         -158.9          15.26          158.2
   0.07205              -12.99          27.78          19.51          48.21         -1.501          6.491         -147.9         -14.41         -158.9          15.26          158.2
   0.08646              -12.99          27.77          19.52          48.21         -1.503           6.49         -147.9          -14.4         -158.8          15.26          158.2
    0.1009              -12.99          27.77          19.52          48.21         -1.504          6.489         -147.8         -14.39         -158.8          15.27          158.1
    0.1153              -12.99          27.76          19.52          48.21         -1.507          6.489         -147.7         -14.37         -158.7          15.27          158.1
    0.1297              -12.99          27.76          19.53          48.21         -1.509          6.488         -147.7         -14.36         -158.7          15.28          158.1
    0.1441              -12.99          27.75          19.53          48.21         -1.511          6.487         -147.6         -14.34         -158.7          15.28          158.1
    0.1585              -12.99          27.74          19.54          48.21         -1.514          6.486         -147.5         -14.33         -158.6          15.29          158.1
    0.1729              -12.99          27.74          19.54          48.21         -1.516          6.485         -147.4         -14.31         -158.6          15.29          158.0
    0.1873              -12.99          27.73          19.55          48.22         -1.519          6.484         -147.3         -14.29         -158.5           15.3          158.0
    0.2017               -13.0          27.72          19.55          48.22         -1.523          6.483         -147.2         -14.27         -158.5           15.3          158.0
    0.2161               -13.0          27.71          19.56          48.22         -1.526          6.481         -147.1         -14.24         -158.4          15.31          158.0
    0.2306               -13.0           27.7          19.56          48.22          -1.53           6.48         -147.0         -14.22         -158.3          15.32          157.9
     0.245               -13.0          27.69          19.57          48.22         -1.534          6.479         -146.8         -14.19         -158.3          15.33          157.9
    0.2594               -13.0          27.68          19.58          48.22         -1.538          6.477         -146.7         -14.16         -158.2          15.33          157.9
    0.2738               -13.0          27.66          19.59          48.23         -1.543          6.475         -146.5         -14.13         -158.1          15.34          157.8
    0.2882              -13.01          27.65           19.6          48.23         -1.549          6.473         -146.4         -14.09         -158.0          15.36          157.8
    0.3026              -13.01          27.63          19.61          48.23         -1.555          6.471         -146.2         -14.05         -157.9          15.37          157.7
     0.317              -13.01          27.62          19.62          48.23         -1.561          6.469         -146.0         -14.01         -157.8          15.38          157.7
    0.3314              -13.01           27.6          19.63          48.24         -1.568          6.466         -145.7         -13.96         -157.6          15.39          157.6
    0.3458              -13.02          27.58          19.64          48.24         -1.576          6.463         -145.5         -13.91         -157.5          15.41          157.5
    0.3602              -13.02          27.55          19.66          48.25         -1.585           6.46         -145.2         -13.85         -157.3          15.43          157.5
    0.3747              -13.03          27.53          19.68          48.25         -1.596          6.456         -144.9         -13.78         -157.1          15.45          157.4
    0.3891              -13.03           27.5           19.7          48.26         -1.607          6.452         -144.5         -13.71         -156.9          15.47          157.3
    0.4035              -13.04          27.46          19.72          48.26          -1.62          6.447         -144.1         -13.62         -156.7           15.5          157.2
    0.4179              -13.04          27.42          19.74          48.27         -1.634          6.442         -143.6         -13.52         -156.4          15.53          157.0
    0.4323              -13.05          27.38          19.77          48.27         -1.651          6.435         -143.1         -13.41         -156.1          15.56          156.9
    0.4467              -13.06          27.33           19.8          48.28          -1.67          6.428         -142.5         -13.29         -155.8           15.6          156.7
    0.4611              -13.07          27.27          19.84          48.29         -1.692           6.42         -141.7         -13.14         -155.4          15.64          156.5
    0.4755              -13.08           27.2          19.89           48.3         -1.717          6.411         -140.9         -12.97         -154.9          15.69          156.3
    0.4899              -13.09          27.13          19.94          48.32         -1.747            6.4         -139.9         -12.77         -154.4          15.75          156.1
    0.5043               -13.1          27.03           20.0          48.33         -1.783          6.387         -138.8         -12.53         -153.7          15.82          155.8
    0.5187              -13.12          26.92          20.07          48.35         -1.825          6.371         -137.5         -12.25         -153.0          15.91          155.4
    0.5332              -13.14          26.79          20.16          48.37         -1.875          6.353         -135.8         -11.92         -152.1          16.01          155.0
    0.5476              -13.17          26.63          20.26           48.4         -1.936           6.33         -133.9         -11.51         -150.9          16.13          154.5
     0.562               -13.2          26.43          20.39          48.44          -2.01          6.303         -131.5         -11.02         -149.6          16.28          153.8
    0.5764              -13.24          26.19          20.55          48.48         -2.101          6.269         -128.5         -10.41         -147.9          16.46          153.1
    0.5908              -13.29          25.89          20.74          48.53         -2.216          6.227         -124.8         -9.648         -145.8          16.69          152.1
    0.6052              -13.35          25.51          20.99          48.59          -2.36          6.174         -120.2         -8.688         -143.2          16.98          150.9
    0.6196              -13.42          25.03          21.31          48.67         -2.543          6.107         -114.3         -7.468         -139.9          17.34          149.3
     0.634              -13.52          24.41          21.71          48.78         -2.777           6.02         -106.7         -5.907         -135.6          17.81          147.3
    0.6484              -13.65          23.61          22.23          48.91         -3.077          5.909         -96.98         -3.904         -130.2          18.41          144.7
    0.6628              -13.81           22.6          22.89          49.08         -3.461          5.768         -84.57         -1.345         -123.2          19.18          141.5
    0.6773              -14.01          21.33          23.72           49.3         -3.944           5.59         -68.98          1.872         -114.4          20.15          137.4
    0.6917              -14.26          19.77          24.73          49.56         -4.532          5.373         -49.97          5.793         -103.7          21.32          132.4
